<?xml version="1.0" encoding="UTF-8"?>
<svg width="926px" height="559px" viewBox="0 0 926 559" version="1.1" xmlns="http://www.w3.org/2000/svg" xmlns:xlink="http://www.w3.org/1999/xlink">
    <!-- Generator: Sketch 47 (45396) - http://www.bohemiancoding.com/sketch -->
    <title>dash-1-1</title>
    <desc>Created with Sketch.</desc>
    <defs>
        <rect id="path-1" x="0.92" y="48.92" width="368.64" height="117.76" rx="7.68"></rect>
        <rect id="path-2" x="0" y="0" width="368.64" height="117.76" rx="7.68"></rect>
        <rect id="path-3" x="0" y="0" width="368.64" height="117.76" rx="7.68"></rect>
        <rect id="path-4" x="0" y="0" width="382.72" height="120.32" rx="7.68"></rect>
        <filter x="-10.2%" y="-32.4%" width="120.4%" height="164.8%" filterUnits="objectBoundingBox" id="filter-5">
            <feOffset dx="0" dy="0" in="SourceAlpha" result="shadowOffsetOuter1"></feOffset>
            <feGaussianBlur stdDeviation="13" in="shadowOffsetOuter1" result="shadowBlurOuter1"></feGaussianBlur>
            <feComposite in="shadowBlurOuter1" in2="SourceAlpha" operator="out" result="shadowBlurOuter1"></feComposite>
            <feColorMatrix values="0 0 0 0 0.929411765   0 0 0 0 0.929411765   0 0 0 0 0.929411765  0 0 0 1 0" type="matrix" in="shadowBlurOuter1"></feColorMatrix>
        </filter>
        <rect id="path-6" x="0" y="0" width="382.72" height="120.32" rx="7.68"></rect>
        <filter x="-10.2%" y="-32.4%" width="120.4%" height="164.8%" filterUnits="objectBoundingBox" id="filter-7">
            <feOffset dx="0" dy="0" in="SourceAlpha" result="shadowOffsetOuter1"></feOffset>
            <feGaussianBlur stdDeviation="13" in="shadowOffsetOuter1" result="shadowBlurOuter1"></feGaussianBlur>
            <feComposite in="shadowBlurOuter1" in2="SourceAlpha" operator="out" result="shadowBlurOuter1"></feComposite>
            <feColorMatrix values="0 0 0 0 0.929411765   0 0 0 0 0.929411765   0 0 0 0 0.929411765  0 0 0 1 0" type="matrix" in="shadowBlurOuter1"></feColorMatrix>
        </filter>
        <linearGradient x1="50%" y1="42.7300952%" x2="50%" y2="92.3041214%" id="linearGradient-8">
            <stop stop-color="#FFFFFF" stop-opacity="0" offset="0%"></stop>
            <stop stop-color="#FFFFFF" offset="100%"></stop>
        </linearGradient>
    </defs>
    <g id="blog" stroke="none" stroke-width="1" fill="none" fill-rule="evenodd">
        <g id="for-svg" transform="translate(-472.000000, -2930.000000)">
            <g id="Group-20" transform="translate(540.000000, 2962.000000)">
                <g id="Rectangle-11">
                    <use fill="#FFFFFF" fill-rule="evenodd" xlink:href="#path-1"></use>
                    <rect stroke="#E9E9E9" stroke-width="1.28" x="1.56" y="49.56" width="367.36" height="116.48" rx="7.68"></rect>
                </g>
                <path d="M36.46875,88.125 C36.60875,90.3825 38.49,91.82625 41.29,91.82625 C44.2825,91.82625 46.155,90.3125 46.155,87.8975 C46.155,85.99875 45.0875,84.94875 42.4975,84.345 L41.10625,84.00375 C39.46125,83.61875 38.79625,83.1025 38.79625,82.20125 C38.79625,81.06375 39.82875,80.32 41.3775,80.32 C42.8475,80.32 43.8625,81.04625 44.04625,82.21 L45.95375,82.21 C45.84,80.08375 43.9675,78.5875 41.40375,78.5875 C38.6475,78.5875 36.81,80.08375 36.81,82.3325 C36.81,84.1875 37.85125,85.29 40.135,85.82375 L41.7625,86.2175 C43.43375,86.61125 44.16875,87.18875 44.16875,88.15125 C44.16875,89.27125 43.01375,90.085 41.43875,90.085 C39.75,90.085 38.5775,89.32375 38.41125,88.125 L36.46875,88.125 Z M53.4525,81.83375 C55.87625,81.83375 57.4075,83.72375 57.4075,86.75125 C57.4075,89.77875 55.87625,91.6775 53.47,91.6775 C52.11375,91.6775 51.0375,91.0825 50.53875,90.07625 L50.39,90.07625 L50.39,94.6875 L48.50875,94.6875 L48.50875,81.99125 L50.32,81.99125 L50.32,83.56625 L50.46,83.56625 C51.0375,82.48125 52.1575,81.83375 53.4525,81.83375 Z M52.91875,89.98875 C54.52,89.98875 55.47375,88.7725 55.47375,86.75125 C55.47375,84.73875 54.52,83.5225 52.9275,83.5225 C51.34375,83.5225 50.355,84.765 50.355,86.76 C50.355,88.74625 51.34375,89.98875 52.91875,89.98875 Z M63.57625,83.40875 C62.185,83.40875 61.21375,84.38875 61.10875,85.87625 L65.92125,85.87625 C65.8775,84.38 64.9675,83.40875 63.57625,83.40875 Z M65.9125,88.9475 L67.72375,88.9475 C67.295,90.65375 65.7725,91.70375 63.59375,91.70375 C60.86375,91.70375 59.1925,89.83125 59.1925,86.78625 C59.1925,83.74125 60.89875,81.8075 63.585,81.8075 C66.23625,81.8075 67.8375,83.61875 67.8375,86.61125 L67.8375,87.2675 L61.10875,87.2675 L61.10875,87.3725 C61.17,89.04375 62.14125,90.1025 63.64625,90.1025 C64.78375,90.1025 65.5625,89.69125 65.9125,88.9475 Z M70.095,91.52 L71.97625,91.52 L71.97625,85.94625 C71.97625,84.45875 72.86,83.53125 74.25125,83.53125 C75.6425,83.53125 76.3075,84.2925 76.3075,85.82375 L76.3075,91.52 L78.18875,91.52 L78.18875,85.35125 C78.18875,83.085 77.01625,81.8075 74.89,81.8075 C73.455,81.8075 72.51,82.44625 72.04625,83.505 L71.90625,83.505 L71.90625,81.99125 L70.095,81.99125 L70.095,91.52 Z M81.49625,79.62 L81.49625,82.035 L79.9825,82.035 L79.9825,83.61875 L81.49625,83.61875 L81.49625,89 C81.49625,90.8375 82.3275,91.5725 84.41875,91.5725 C84.78625,91.5725 85.13625,91.52875 85.4425,91.47625 L85.4425,89.91 C85.18,89.93625 85.01375,89.95375 84.725,89.95375 C83.78875,89.95375 83.3775,89.51625 83.3775,88.51875 L83.3775,83.61875 L85.4425,83.61875 L85.4425,82.035 L83.3775,82.035 L83.3775,79.62 L81.49625,79.62 Z M93.22125,79.62 L93.22125,82.035 L91.7075,82.035 L91.7075,83.61875 L93.22125,83.61875 L93.22125,89 C93.22125,90.8375 94.0525,91.5725 96.14375,91.5725 C96.51125,91.5725 96.86125,91.52875 97.1675,91.47625 L97.1675,89.91 C96.905,89.93625 96.73875,89.95375 96.45,89.95375 C95.51375,89.95375 95.1025,89.51625 95.1025,88.51875 L95.1025,83.61875 L97.1675,83.61875 L97.1675,82.035 L95.1025,82.035 L95.1025,79.62 L93.22125,79.62 Z M103.40625,91.70375 C100.615,91.70375 98.90875,89.84 98.90875,86.75125 C98.90875,83.68 100.62375,81.8075 103.40625,81.8075 C106.18,81.8075 107.895,83.68 107.895,86.75125 C107.895,89.84 106.18875,91.70375 103.40625,91.70375 Z M103.40625,90.0325 C105.03375,90.0325 105.96125,88.825 105.96125,86.75125 C105.96125,84.68625 105.03375,83.47875 103.40625,83.47875 C101.77,83.47875 100.85125,84.68625 100.85125,86.75125 C100.85125,88.83375 101.77,90.0325 103.40625,90.0325 Z M110.8175,79.62 L110.8175,82.035 L109.30375,82.035 L109.30375,83.61875 L110.8175,83.61875 L110.8175,89 C110.8175,90.8375 111.64875,91.5725 113.74,91.5725 C114.1075,91.5725 114.4575,91.52875 114.76375,91.47625 L114.76375,89.91 C114.50125,89.93625 114.335,89.95375 114.04625,89.95375 C113.11,89.95375 112.69875,89.51625 112.69875,88.51875 L112.69875,83.61875 L114.76375,83.61875 L114.76375,82.035 L112.69875,82.035 L112.69875,79.62 L110.8175,79.62 Z M120.0925,90.09375 C121.51,90.09375 122.56,89.1925 122.56,88.01125 L122.56,87.215 L120.2325,87.36375 C118.92,87.45125 118.325,87.8975 118.325,88.7375 C118.325,89.595 119.06875,90.09375 120.0925,90.09375 Z M119.61125,91.6775 C117.77375,91.6775 116.435,90.56625 116.435,88.825 C116.435,87.11 117.7125,86.12125 119.97875,85.98125 L122.56,85.8325 L122.56,85.01 C122.56,84.00375 121.895,83.435 120.60875,83.435 C119.55875,83.435 118.8325,83.82 118.6225,84.49375 L116.8025,84.49375 C116.995,82.8575 118.535,81.8075 120.69625,81.8075 C123.085,81.8075 124.4325,82.9975 124.4325,85.01 L124.4325,91.52 L122.62125,91.52 L122.62125,90.18125 L122.4725,90.18125 C121.90375,91.135 120.8625,91.6775 119.61125,91.6775 Z M127.1975,91.52 L129.07875,91.52 L129.07875,78.2725 L127.1975,78.2725 L127.1975,91.52 Z" id="Spent-total" fill="#000000"></path>
                <path d="M46.873125,137.975 L44.56125,137.975 L44.56125,135.78125 C39.735,135.460625 36.6975,132.81125 36.680625,128.89625 L40.258125,128.89625 C40.426875,130.904375 42.046875,132.305 44.56125,132.591875 L44.56125,124.896875 L43.059375,124.50875 C39.29625,123.546875 37.2375,121.285625 37.2375,117.995 C37.2375,114.096875 40.005,111.515 44.56125,111.093125 L44.56125,108.764375 L46.873125,108.764375 L46.873125,111.093125 C51.24375,111.48125 54.1125,114.1475 54.21375,117.910625 L50.686875,117.910625 C50.619375,116.054375 49.100625,114.603125 46.873125,114.333125 L46.873125,121.60625 L48.4425,121.960625 C52.678125,122.99 54.669375,125.133125 54.669375,128.62625 C54.669375,132.760625 51.8175,135.3425 46.873125,135.764375 L46.873125,137.975 Z M51.075,129.014375 C51.075,127.07375 49.741875,125.909375 46.873125,125.335625 L46.873125,132.625625 C49.539375,132.47375 51.075,131.1575 51.075,129.014375 Z M40.84875,117.69125 C40.84875,119.429375 42.13125,120.6275 44.56125,121.116875 L44.56125,114.31625 C42.40125,114.434375 40.84875,115.851875 40.84875,117.69125 Z M65.604375,135.68 L69.384375,135.68 L69.384375,111.329375 L65.62125,111.329375 L59.20875,115.851875 L59.20875,119.71625 L65.3175,115.39625 L65.604375,115.39625 L65.604375,135.68 Z M85.06125,136.270625 C79.374375,136.270625 76.05,131.579375 76.05,123.479375 C76.05,115.43 79.408125,110.73875 85.06125,110.73875 C90.680625,110.73875 94.03875,115.446875 94.03875,123.513125 C94.03875,131.59625 90.73125,136.270625 85.06125,136.270625 Z M85.06125,132.963125 C88.36875,132.963125 90.225,129.655625 90.225,123.479375 C90.225,117.370625 88.335,114.04625 85.06125,114.04625 C81.7875,114.04625 79.86375,117.3875 79.86375,123.479375 C79.86375,129.63875 81.75375,132.963125 85.06125,132.963125 Z M107.083125,136.270625 C102.763125,136.270625 99.50625,133.68875 98.76375,129.70625 L102.5775,129.70625 C103.168125,131.6975 104.889375,132.9125 107.116875,132.9125 C110.84625,132.9125 113.023125,129.5375 113.090625,123.665 L112.80375,123.665 C111.639375,126.010625 109.310625,127.360625 106.425,127.360625 C101.784375,127.360625 98.409375,123.935 98.409375,119.24375 C98.409375,114.265625 102.07125,110.73875 107.235,110.73875 C110.829375,110.73875 113.664375,112.49375 115.23375,115.7675 C116.229375,117.725 116.735625,120.2225 116.735625,123.175625 C116.735625,131.4275 113.175,136.270625 107.083125,136.270625 Z M107.251875,124.154375 C110.221875,124.154375 112.381875,122.061875 112.381875,119.193125 C112.381875,116.27375 110.17125,114.063125 107.285625,114.063125 C104.383125,114.063125 102.1725,116.256875 102.1725,119.10875 C102.1725,122.061875 104.265,124.154375 107.251875,124.154375 Z M132.699375,135.68 L132.699375,130.971875 L120.819375,130.971875 L120.819375,127.461875 C122.99625,123.479375 126.624375,117.82625 130.96125,111.329375 L136.344375,111.329375 L136.344375,127.596875 L139.7025,127.596875 L139.7025,130.971875 L136.344375,130.971875 L136.344375,135.68 L132.699375,135.68 Z M124.4475,127.445 L124.4475,127.68125 L132.75,127.68125 L132.75,114.65375 L132.530625,114.65375 C130.1175,118.146875 127.31625,122.466875 124.4475,127.445 Z M153.286875,136.270625 C149.675625,136.270625 146.874375,134.481875 145.288125,131.225 C144.2925,129.2675 143.803125,126.786875 143.803125,123.816875 C143.803125,115.565 147.36375,110.73875 153.455625,110.73875 C157.75875,110.73875 161.015625,113.30375 161.758125,117.28625 L157.96125,117.28625 C157.35375,115.295 155.6325,114.08 153.421875,114.08 C149.675625,114.08 147.515625,117.471875 147.43125,123.3275 L147.718125,123.3275 C148.899375,120.981875 151.228125,119.64875 154.11375,119.64875 C158.7375,119.64875 162.1125,123.0575 162.1125,127.765625 C162.1125,132.726875 158.450625,136.270625 153.286875,136.270625 Z M153.253125,132.94625 C156.155625,132.94625 158.36625,130.7525 158.36625,127.88375 C158.36625,124.930625 156.256875,122.838125 153.27,122.838125 C150.3,122.838125 148.14,124.930625 148.14,127.81625 C148.14,130.71875 150.350625,132.94625 153.253125,132.94625 Z M175.8825,136.270625 C172.27125,136.270625 169.47,134.481875 167.88375,131.225 C166.888125,129.2675 166.39875,126.786875 166.39875,123.816875 C166.39875,115.565 169.959375,110.73875 176.05125,110.73875 C180.354375,110.73875 183.61125,113.30375 184.35375,117.28625 L180.556875,117.28625 C179.949375,115.295 178.228125,114.08 176.0175,114.08 C172.27125,114.08 170.11125,117.471875 170.026875,123.3275 L170.31375,123.3275 C171.495,120.981875 173.82375,119.64875 176.709375,119.64875 C181.333125,119.64875 184.708125,123.0575 184.708125,127.765625 C184.708125,132.726875 181.04625,136.270625 175.8825,136.270625 Z M175.84875,132.94625 C178.75125,132.94625 180.961875,130.7525 180.961875,127.88375 C180.961875,124.930625 178.8525,122.838125 175.865625,122.838125 C172.895625,122.838125 170.735625,124.930625 170.735625,127.81625 C170.735625,130.71875 172.94625,132.94625 175.84875,132.94625 Z M192.301875,135.966875 C193.73625,135.966875 194.7825,134.87 194.7825,133.4525 C194.7825,132.035 193.73625,130.938125 192.301875,130.938125 C190.884375,130.938125 189.82125,132.035 189.82125,133.4525 C189.82125,134.87 190.884375,135.966875 192.301875,135.966875 Z M209.3625,136.270625 C205.75125,136.270625 202.95,134.481875 201.36375,131.225 C200.368125,129.2675 199.87875,126.786875 199.87875,123.816875 C199.87875,115.565 203.439375,110.73875 209.53125,110.73875 C213.834375,110.73875 217.09125,113.30375 217.83375,117.28625 L214.036875,117.28625 C213.429375,115.295 211.708125,114.08 209.4975,114.08 C205.75125,114.08 203.59125,117.471875 203.506875,123.3275 L203.79375,123.3275 C204.975,120.981875 207.30375,119.64875 210.189375,119.64875 C214.813125,119.64875 218.188125,123.0575 218.188125,127.765625 C218.188125,132.726875 214.52625,136.270625 209.3625,136.270625 Z M209.32875,132.94625 C212.23125,132.94625 214.441875,130.7525 214.441875,127.88375 C214.441875,124.930625 212.3325,122.838125 209.345625,122.838125 C206.375625,122.838125 204.215625,124.930625 204.215625,127.81625 C204.215625,130.71875 206.42625,132.94625 209.32875,132.94625 Z" id="$109466.6" fill="#000000"></path>
                <g id="Group-14" transform="translate(0.920000, 206.360000)">
                    <g id="Rectangle-11-Copy">
                        <use fill="#FFFFFF" fill-rule="evenodd" xlink:href="#path-2"></use>
                        <rect stroke="#E9E9E9" stroke-width="1.28" x="0.64" y="0.64" width="367.36" height="116.48" rx="7.68"></rect>
                    </g>
                    <path d="M32.98375,42.6 L32.98375,29.97375 L31.02375,29.97375 L31.02375,42.6 L32.98375,42.6 Z M35.92375,42.6 L37.805,42.6 L37.805,37.02625 C37.805,35.53875 38.68875,34.61125 40.08,34.61125 C41.47125,34.61125 42.13625,35.3725 42.13625,36.90375 L42.13625,42.6 L44.0175,42.6 L44.0175,36.43125 C44.0175,34.165 42.845,32.8875 40.71875,32.8875 C39.28375,32.8875 38.33875,33.52625 37.875,34.585 L37.735,34.585 L37.735,33.07125 L35.92375,33.07125 L35.92375,42.6 Z M46.44125,35.76625 C46.44125,37.18375 47.28125,37.9975 49.0925,38.42625 L50.755,38.81125 C51.70875,39.03875 52.155,39.40625 52.155,39.975 C52.155,40.73625 51.32375,41.26125 50.15125,41.26125 C49.01375,41.26125 48.31375,40.80625 48.0775,40.07125 L46.19625,40.07125 C46.3625,41.76 47.84125,42.78375 50.1075,42.78375 C52.3825,42.78375 54.05375,41.585 54.05375,39.79125 C54.05375,38.39125 53.205,37.6125 51.39375,37.1925 L49.81,36.825 C48.7775,36.58875 48.29625,36.23 48.29625,35.66125 C48.29625,34.9175 49.0925,34.41875 50.1425,34.41875 C51.21,34.41875 51.8925,34.865 52.0675,35.565 L53.87,35.565 C53.68625,33.885 52.28625,32.8875 50.1425,32.8875 C47.99,32.8875 46.44125,34.0775 46.44125,35.76625 Z M56.985,30.7 L56.985,33.115 L55.47125,33.115 L55.47125,34.69875 L56.985,34.69875 L56.985,40.08 C56.985,41.9175 57.81625,42.6525 59.9075,42.6525 C60.275,42.6525 60.625,42.60875 60.93125,42.55625 L60.93125,40.99 C60.66875,41.01625 60.5025,41.03375 60.21375,41.03375 C59.2775,41.03375 58.86625,40.59625 58.86625,39.59875 L58.86625,34.69875 L60.93125,34.69875 L60.93125,33.115 L58.86625,33.115 L58.86625,30.7 L56.985,30.7 Z M66.26,41.17375 C67.6775,41.17375 68.7275,40.2725 68.7275,39.09125 L68.7275,38.295 L66.4,38.44375 C65.0875,38.53125 64.4925,38.9775 64.4925,39.8175 C64.4925,40.675 65.23625,41.17375 66.26,41.17375 Z M65.77875,42.7575 C63.94125,42.7575 62.6025,41.64625 62.6025,39.905 C62.6025,38.19 63.88,37.20125 66.14625,37.06125 L68.7275,36.9125 L68.7275,36.09 C68.7275,35.08375 68.0625,34.515 66.77625,34.515 C65.72625,34.515 65,34.9 64.79,35.57375 L62.97,35.57375 C63.1625,33.9375 64.7025,32.8875 66.86375,32.8875 C69.2525,32.8875 70.6,34.0775 70.6,36.09 L70.6,42.6 L68.78875,42.6 L68.78875,41.26125 L68.64,41.26125 C68.07125,42.215 67.03,42.7575 65.77875,42.7575 Z M73.365,42.6 L75.24625,42.6 L75.24625,29.3525 L73.365,29.3525 L73.365,42.6 Z M78.15125,42.6 L80.0325,42.6 L80.0325,29.3525 L78.15125,29.3525 L78.15125,42.6 Z" id="Install" fill="#000000"></path>
                    <path d="M41.9975,86.76 L41.9975,82.051875 L30.1175,82.051875 L30.1175,78.541875 C32.294375,74.559375 35.9225,68.90625 40.259375,62.409375 L45.6425,62.409375 L45.6425,78.676875 L49.000625,78.676875 L49.000625,82.051875 L45.6425,82.051875 L45.6425,86.76 L41.9975,86.76 Z M33.745625,78.525 L33.745625,78.76125 L42.048125,78.76125 L42.048125,65.73375 L41.82875,65.73375 C39.415625,69.226875 36.614375,73.546875 33.745625,78.525 Z M53.388125,69.44625 L53.388125,69.496875 L56.965625,69.496875 L56.965625,69.44625 C56.965625,66.8475 58.77125,65.0925 61.454375,65.0925 C63.96875,65.0925 65.875625,66.763125 65.875625,68.990625 C65.875625,70.779375 65.0825,72.061875 61.825625,75.45375 L53.590625,84.02625 L53.590625,86.76 L69.993125,86.76 L69.993125,83.368125 L58.855625,83.368125 L58.855625,83.08125 L64.2725,77.596875 C68.35625,73.4625 69.605,71.353125 69.605,68.77125 C69.605,64.755 66.19625,61.81875 61.5725,61.81875 C56.78,61.81875 53.388125,64.9575 53.388125,69.44625 Z M83.94875,87.350625 C80.3375,87.350625 77.53625,85.561875 75.95,82.305 C74.954375,80.3475 74.465,77.866875 74.465,74.896875 C74.465,66.645 78.025625,61.81875 84.1175,61.81875 C88.420625,61.81875 91.6775,64.38375 92.42,68.36625 L88.623125,68.36625 C88.015625,66.375 86.294375,65.16 84.08375,65.16 C80.3375,65.16 78.1775,68.551875 78.093125,74.4075 L78.38,74.4075 C79.56125,72.061875 81.89,70.72875 84.775625,70.72875 C89.399375,70.72875 92.774375,74.1375 92.774375,78.845625 C92.774375,83.806875 89.1125,87.350625 83.94875,87.350625 Z M83.915,84.02625 C86.8175,84.02625 89.028125,81.8325 89.028125,78.96375 C89.028125,76.010625 86.91875,73.918125 83.931875,73.918125 C80.961875,73.918125 78.801875,76.010625 78.801875,78.89625 C78.801875,81.79875 81.0125,84.02625 83.915,84.02625 Z M105.9875,87.350625 C111.235625,87.350625 114.79625,83.925 114.79625,78.879375 C114.79625,74.086875 111.539375,70.711875 106.915625,70.711875 C104.60375,70.711875 102.8825,71.488125 101.76875,72.9225 L101.481875,72.9225 L102.123125,65.784375 L113.37875,65.784375 L113.37875,62.409375 L99.17,62.409375 L97.8875,76.348125 L101.346875,76.348125 C102.291875,74.77875 103.979375,73.850625 106.071875,73.850625 C109.041875,73.850625 111.100625,75.92625 111.100625,78.980625 C111.100625,82.018125 109.05875,84.02625 106.02125,84.02625 C103.355,84.02625 101.380625,82.456875 101.09375,80.094375 L97.499375,80.094375 C97.71875,84.36375 101.144375,87.350625 105.9875,87.350625 Z" id="4265" fill="#000000"></path>
                </g>
                <g id="Group-14-Copy" transform="translate(0.920000, 359.960000)">
                    <g id="Rectangle-11-Copy">
                        <use fill="#FFFFFF" fill-rule="evenodd" xlink:href="#path-3"></use>
                        <rect stroke="#E9E9E9" stroke-width="1.28" x="0.64" y="0.64" width="367.36" height="116.48" rx="7.68"></rect>
                    </g>
                    <path d="M32.98375,42.6 L32.98375,29.97375 L31.02375,29.97375 L31.02375,42.6 L32.98375,42.6 Z M35.92375,42.6 L37.805,42.6 L37.805,37.02625 C37.805,35.53875 38.68875,34.61125 40.08,34.61125 C41.47125,34.61125 42.13625,35.3725 42.13625,36.90375 L42.13625,42.6 L44.0175,42.6 L44.0175,36.43125 C44.0175,34.165 42.845,32.8875 40.71875,32.8875 C39.28375,32.8875 38.33875,33.52625 37.875,34.585 L37.735,34.585 L37.735,33.07125 L35.92375,33.07125 L35.92375,42.6 Z M52.435,38.435 L52.435,36.58875 L46.695,36.58875 L46.695,38.435 L52.435,38.435 Z M58.30625,41.17375 C59.72375,41.17375 60.77375,40.2725 60.77375,39.09125 L60.77375,38.295 L58.44625,38.44375 C57.13375,38.53125 56.53875,38.9775 56.53875,39.8175 C56.53875,40.675 57.2825,41.17375 58.30625,41.17375 Z M57.825,42.7575 C55.9875,42.7575 54.64875,41.64625 54.64875,39.905 C54.64875,38.19 55.92625,37.20125 58.1925,37.06125 L60.77375,36.9125 L60.77375,36.09 C60.77375,35.08375 60.10875,34.515 58.8225,34.515 C57.7725,34.515 57.04625,34.9 56.83625,35.57375 L55.01625,35.57375 C55.20875,33.9375 56.74875,32.8875 58.91,32.8875 C61.29875,32.8875 62.64625,34.0775 62.64625,36.09 L62.64625,42.6 L60.835,42.6 L60.835,41.26125 L60.68625,41.26125 C60.1175,42.215 59.07625,42.7575 57.825,42.7575 Z M70.2675,32.91375 C72.69125,32.91375 74.2225,34.80375 74.2225,37.83125 C74.2225,40.85875 72.69125,42.7575 70.285,42.7575 C68.92875,42.7575 67.8525,42.1625 67.35375,41.15625 L67.205,41.15625 L67.205,45.7675 L65.32375,45.7675 L65.32375,33.07125 L67.135,33.07125 L67.135,34.64625 L67.275,34.64625 C67.8525,33.56125 68.9725,32.91375 70.2675,32.91375 Z M69.73375,41.06875 C71.335,41.06875 72.28875,39.8525 72.28875,37.83125 C72.28875,35.81875 71.335,34.6025 69.7425,34.6025 C68.15875,34.6025 67.17,35.845 67.17,37.84 C67.17,39.82625 68.15875,41.06875 69.73375,41.06875 Z M81.42375,32.91375 C83.8475,32.91375 85.37875,34.80375 85.37875,37.83125 C85.37875,40.85875 83.8475,42.7575 81.44125,42.7575 C80.085,42.7575 79.00875,42.1625 78.51,41.15625 L78.36125,41.15625 L78.36125,45.7675 L76.48,45.7675 L76.48,33.07125 L78.29125,33.07125 L78.29125,34.64625 L78.43125,34.64625 C79.00875,33.56125 80.12875,32.91375 81.42375,32.91375 Z M80.89,41.06875 C82.49125,41.06875 83.445,39.8525 83.445,37.83125 C83.445,35.81875 82.49125,34.6025 80.89875,34.6025 C79.315,34.6025 78.32625,35.845 78.32625,37.84 C78.32625,39.82625 79.315,41.06875 80.89,41.06875 Z M94.715,31.6975 L94.715,36.11625 L97.5325,36.11625 C99.04625,36.11625 99.92125,35.31125 99.92125,33.9025 C99.92125,32.52875 98.99375,31.6975 97.48,31.6975 L94.715,31.6975 Z M94.715,37.7875 L94.715,42.6 L92.755,42.6 L92.755,29.97375 L97.75125,29.97375 C100.2975,29.97375 101.93375,31.4875 101.93375,33.85875 C101.93375,35.55625 101.02375,36.93875 99.48375,37.46375 L102.31875,42.6 L100.0525,42.6 L97.48,37.7875 L94.715,37.7875 Z M108.4175,34.48875 C107.02625,34.48875 106.055,35.46875 105.95,36.95625 L110.7625,36.95625 C110.71875,35.46 109.80875,34.48875 108.4175,34.48875 Z M110.75375,40.0275 L112.565,40.0275 C112.13625,41.73375 110.61375,42.78375 108.435,42.78375 C105.705,42.78375 104.03375,40.91125 104.03375,37.86625 C104.03375,34.82125 105.74,32.8875 108.42625,32.8875 C111.0775,32.8875 112.67875,34.69875 112.67875,37.69125 L112.67875,38.3475 L105.95,38.3475 L105.95,38.4525 C106.01125,40.12375 106.9825,41.1825 108.4875,41.1825 C109.625,41.1825 110.40375,40.77125 110.75375,40.0275 Z M123.00375,33.07125 L121.00875,33.07125 L118.64625,40.5875 L118.4975,40.5875 L116.12625,33.07125 L114.11375,33.07125 L117.5525,42.6 L119.57375,42.6 L123.00375,33.07125 Z M128.8225,34.48875 C127.43125,34.48875 126.46,35.46875 126.355,36.95625 L131.1675,36.95625 C131.12375,35.46 130.21375,34.48875 128.8225,34.48875 Z M131.15875,40.0275 L132.97,40.0275 C132.54125,41.73375 131.01875,42.78375 128.84,42.78375 C126.11,42.78375 124.43875,40.91125 124.43875,37.86625 C124.43875,34.82125 126.145,32.8875 128.83125,32.8875 C131.4825,32.8875 133.08375,34.69875 133.08375,37.69125 L133.08375,38.3475 L126.355,38.3475 L126.355,38.4525 C126.41625,40.12375 127.3875,41.1825 128.8925,41.1825 C130.03,41.1825 130.80875,40.77125 131.15875,40.0275 Z M135.34125,42.6 L137.2225,42.6 L137.2225,37.02625 C137.2225,35.53875 138.10625,34.61125 139.4975,34.61125 C140.88875,34.61125 141.55375,35.3725 141.55375,36.90375 L141.55375,42.6 L143.435,42.6 L143.435,36.43125 C143.435,34.165 142.2625,32.8875 140.13625,32.8875 C138.70125,32.8875 137.75625,33.52625 137.2925,34.585 L137.1525,34.585 L137.1525,33.07125 L135.34125,33.07125 L135.34125,42.6 Z M154.11,33.07125 L152.22875,33.07125 L152.22875,38.645 C152.22875,40.14125 151.3975,41.0425 149.875,41.0425 C148.4925,41.0425 147.87125,40.3075 147.87125,38.7675 L147.87125,33.07125 L145.99,33.07125 L145.99,39.2575 C145.99,41.4975 147.1625,42.78375 149.27125,42.78375 C150.715,42.78375 151.68625,42.17125 152.15,41.08625 L152.29875,41.08625 L152.29875,42.6 L154.11,42.6 L154.11,33.07125 Z M160.75125,34.48875 C159.36,34.48875 158.38875,35.46875 158.28375,36.95625 L163.09625,36.95625 C163.0525,35.46 162.1425,34.48875 160.75125,34.48875 Z M163.0875,40.0275 L164.89875,40.0275 C164.47,41.73375 162.9475,42.78375 160.76875,42.78375 C158.03875,42.78375 156.3675,40.91125 156.3675,37.86625 C156.3675,34.82125 158.07375,32.8875 160.76,32.8875 C163.41125,32.8875 165.0125,34.69875 165.0125,37.69125 L165.0125,38.3475 L158.28375,38.3475 L158.28375,38.4525 C158.345,40.12375 159.31625,41.1825 160.82125,41.1825 C161.95875,41.1825 162.7375,40.77125 163.0875,40.0275 Z" id="In-app-Revenue" fill="#000000"></path>
                    <path d="M40.833125,89.055 L38.52125,89.055 L38.52125,86.86125 C33.695,86.540625 30.6575,83.89125 30.640625,79.97625 L34.218125,79.97625 C34.386875,81.984375 36.006875,83.385 38.52125,83.671875 L38.52125,75.976875 L37.019375,75.58875 C33.25625,74.626875 31.1975,72.365625 31.1975,69.075 C31.1975,65.176875 33.965,62.595 38.52125,62.173125 L38.52125,59.844375 L40.833125,59.844375 L40.833125,62.173125 C45.20375,62.56125 48.0725,65.2275 48.17375,68.990625 L44.646875,68.990625 C44.579375,67.134375 43.060625,65.683125 40.833125,65.413125 L40.833125,72.68625 L42.4025,73.040625 C46.638125,74.07 48.629375,76.213125 48.629375,79.70625 C48.629375,83.840625 45.7775,86.4225 40.833125,86.844375 L40.833125,89.055 Z M45.035,80.094375 C45.035,78.15375 43.701875,76.989375 40.833125,76.415625 L40.833125,83.705625 C43.499375,83.55375 45.035,82.2375 45.035,80.094375 Z M34.80875,68.77125 C34.80875,70.509375 36.09125,71.7075 38.52125,72.196875 L38.52125,65.39625 C36.36125,65.514375 34.80875,66.931875 34.80875,68.77125 Z M64.930625,86.76 L64.930625,82.051875 L53.050625,82.051875 L53.050625,78.541875 C55.2275,74.559375 58.855625,68.90625 63.1925,62.409375 L68.575625,62.409375 L68.575625,78.676875 L71.93375,78.676875 L71.93375,82.051875 L68.575625,82.051875 L68.575625,86.76 L64.930625,86.76 Z M56.67875,78.525 L56.67875,78.76125 L64.98125,78.76125 L64.98125,65.73375 L64.761875,65.73375 C62.34875,69.226875 59.5475,73.546875 56.67875,78.525 Z M85.518125,87.350625 C81.906875,87.350625 79.105625,85.561875 77.519375,82.305 C76.52375,80.3475 76.034375,77.866875 76.034375,74.896875 C76.034375,66.645 79.595,61.81875 85.686875,61.81875 C89.99,61.81875 93.246875,64.38375 93.989375,68.36625 L90.1925,68.36625 C89.585,66.375 87.86375,65.16 85.653125,65.16 C81.906875,65.16 79.746875,68.551875 79.6625,74.4075 L79.949375,74.4075 C81.130625,72.061875 83.459375,70.72875 86.345,70.72875 C90.96875,70.72875 94.34375,74.1375 94.34375,78.845625 C94.34375,83.806875 90.681875,87.350625 85.518125,87.350625 Z M85.484375,84.02625 C88.386875,84.02625 90.5975,81.8325 90.5975,78.96375 C90.5975,76.010625 88.488125,73.918125 85.50125,73.918125 C82.53125,73.918125 80.37125,76.010625 80.37125,78.89625 C80.37125,81.79875 82.581875,84.02625 85.484375,84.02625 Z M101.9375,87.046875 C103.371875,87.046875 104.418125,85.95 104.418125,84.5325 C104.418125,83.115 103.371875,82.018125 101.9375,82.018125 C100.52,82.018125 99.456875,83.115 99.456875,84.5325 C99.456875,85.95 100.52,87.046875 101.9375,87.046875 Z M115.8425,86.76 L119.6225,86.76 L119.6225,62.409375 L115.859375,62.409375 L109.446875,66.931875 L109.446875,70.79625 L115.555625,66.47625 L115.8425,66.47625 L115.8425,86.76 Z M132.00875,75.825 L135.08,75.825 C138.269375,75.825 140.24375,77.394375 140.24375,79.90875 C140.24375,82.305 138.15125,84.009375 135.18125,84.009375 C132.228125,84.009375 130.203125,82.5075 129.966875,80.145 L126.33875,80.145 C126.558125,84.49875 130.068125,87.350625 135.18125,87.350625 C140.260625,87.350625 144.108125,84.245625 144.108125,80.11125 C144.108125,76.854375 142.083125,74.57625 138.75875,74.188125 L138.75875,73.90125 C141.441875,73.29375 143.1125,71.13375 143.1125,68.265 C143.1125,64.603125 139.63625,61.81875 135.11375,61.81875 C130.236875,61.81875 127.064375,64.535625 126.81125,68.94 L130.405625,68.94 C130.608125,66.54375 132.34625,65.075625 134.995625,65.075625 C137.645,65.075625 139.383125,66.560625 139.383125,68.821875 C139.383125,71.116875 137.5775,72.703125 134.961875,72.703125 L132.00875,72.703125 L132.00875,75.825 Z" id="$46.13" fill="#000000"></path>
                </g>
                <path d="M10.519424,4.029184 C10.046336,4.029184 9.659264,4.40192 9.659264,4.889344 C9.659264,5.362432 10.046336,5.749504 10.519424,5.749504 C10.992512,5.749504 11.379584,5.362432 11.379584,4.889344 C11.379584,4.40192 10.978176,4.029184 10.519424,4.029184 Z M10.519424,10.49472 C10.046336,10.49472 9.659264,10.867456 9.659264,11.35488 C9.659264,11.827968 10.046336,12.21504 10.519424,12.21504 C10.992512,12.21504 11.379584,11.827968 11.379584,11.35488 C11.379584,10.867456 10.978176,10.49472 10.519424,10.49472 Z M14.232448,4.029184 C13.75936,4.029184 13.372288,4.40192 13.372288,4.889344 C13.372288,5.362432 13.75936,5.749504 14.232448,5.749504 C14.705536,5.749504 15.092608,5.362432 15.092608,4.889344 C15.092608,4.40192 14.6912,4.029184 14.232448,4.029184 Z M14.232448,10.49472 C13.75936,10.49472 13.372288,10.867456 13.372288,11.35488 C13.372288,11.827968 13.75936,12.21504 14.232448,12.21504 C14.705536,12.21504 15.092608,11.827968 15.092608,11.35488 C15.092608,10.867456 14.6912,10.49472 14.232448,10.49472 Z M22.102912,12 L18.576256,12 C17.744768,12 17.386368,11.598592 17.386368,10.881792 L17.386368,1.921792 C17.386368,1.219328 17.730432,0.803584 18.576256,0.803584 L22.231936,0.803584 C24.109952,0.803584 25.357184,1.82144 25.357184,3.527424 C25.357184,4.40192 24.984448,5.176064 24.339328,5.634816 C23.909248,5.935872 23.493504,6.05056 22.9344,6.136576 C23.72288,6.208256 24.267648,6.380288 24.740736,6.781696 C25.29984,7.254784 25.701248,8.028928 25.701248,8.946432 C25.701248,9.4912 25.51488,12 22.102912,12 Z M18.590592,1.792768 L18.590592,5.878528 L21.973888,5.878528 C23.00608,5.878528 24.038272,5.290752 24.038272,3.513088 C24.038272,2.638592 23.751552,1.405696 22.14592,1.405696 L18.963328,1.405696 C18.77696,1.405696 18.590592,1.592064 18.590592,1.792768 Z M22.131584,6.48064 L18.590592,6.48064 L18.590592,11.010816 C18.590592,11.197184 18.748288,11.397888 18.963328,11.397888 L22.231936,11.397888 C23.421824,11.397888 24.382336,10.5664 24.382336,8.903424 C24.382336,8.043264 24.109952,6.48064 22.131584,6.48064 Z M32.381824,8.358656 L28.339072,8.358656 C28.367744,9.505536 28.482432,11.612928 30.503808,11.612928 C31.349632,11.612928 32.195456,11.240192 32.381824,9.978624 C32.439168,9.605888 32.496512,9.175808 33.012608,9.175808 C33.356672,9.175808 33.61472,9.462528 33.61472,9.763584 C33.61472,10.365696 32.912256,12.21504 30.503808,12.21504 C27.407232,12.21504 27.134848,9.319168 27.134848,8.186624 C27.134848,5.878528 28.253056,4.029184 30.53248,4.029184 C32.89792,4.029184 33.6864,6.222592 33.6864,7.26912 C33.6864,8.186624 33.170304,8.358656 32.381824,8.358656 Z M28.339072,7.828224 L32.066432,7.828224 C32.568192,7.828224 32.568192,7.383808 32.568192,7.26912 C32.568192,6.76736 32.482176,4.631296 30.546816,4.631296 C28.697472,4.631296 28.396416,6.451968 28.339072,7.828224 Z M36.5536,4.244224 L35.292032,4.244224 C35.105664,4.244224 35.005312,4.387584 35.005312,4.516608 C35.005312,4.645632 35.105664,4.774656 35.292032,4.774656 L36.5536,4.774656 L36.5536,11.655936 C36.5536,12 36.811648,12.21504 37.112704,12.21504 C37.370752,12.21504 37.643136,12 37.643136,11.655936 L37.643136,4.774656 L39.34912,4.774656 C39.535488,4.774656 39.621504,4.645632 39.621504,4.502272 C39.621504,4.373248 39.521152,4.244224 39.34912,4.244224 L37.643136,4.244224 L37.643136,2.380544 C37.643136,1.248 38.230912,1.147648 38.646656,1.147648 C38.804352,1.147648 38.976384,1.161984 39.119744,1.248 C39.234432,1.31968 39.320448,1.377024 39.392128,1.377024 C39.49248,1.377024 39.607168,1.276672 39.607168,1.147648 C39.607168,0.8896 39.033728,0.588544 38.316928,0.588544 C37.643136,0.588544 36.5536,0.846592 36.5536,2.509568 L36.5536,4.244224 Z M44.08,4.029184 C46.15872,4.029184 47.44896,5.892864 47.44896,8.114944 C47.44896,10.365696 46.144384,12.21504 44.08,12.21504 C42.00128,12.21504 40.71104,10.337024 40.71104,8.114944 C40.71104,5.9072 41.986944,4.029184 44.08,4.029184 Z M44.08,4.645632 C42.130304,4.645632 41.900928,6.968064 41.900928,8.114944 C41.900928,9.218816 42.115968,11.598592 44.08,11.598592 C46.029696,11.598592 46.259072,9.261824 46.259072,8.114944 C46.259072,7.039744 46.058368,4.645632 44.08,4.645632 Z M50.502528,6.380288 C50.660224,5.97888 50.96128,5.219072 52.380544,5.176064 C52.939648,5.161728 53.3984,5.147392 53.3984,4.602624 C53.3984,4.54528 53.3984,4.029184 52.724608,4.029184 C52.165504,4.029184 51.549056,4.301568 51.17632,4.573952 C50.74624,4.889344 50.631552,5.147392 50.502528,5.534464 L50.502528,4.588288 C50.502528,4.244224 50.24448,4.029184 49.943424,4.029184 C49.685376,4.029184 49.412992,4.244224 49.412992,4.588288 L49.412992,11.655936 C49.412992,12 49.67104,12.21504 49.95776,12.21504 C50.230144,12.21504 50.502528,12 50.502528,11.655936 L50.502528,6.380288 Z M59.720576,8.358656 L55.677824,8.358656 C55.706496,9.505536 55.821184,11.612928 57.84256,11.612928 C58.688384,11.612928 59.534208,11.240192 59.720576,9.978624 C59.77792,9.605888 59.835264,9.175808 60.35136,9.175808 C60.695424,9.175808 60.953472,9.462528 60.953472,9.763584 C60.953472,10.365696 60.251008,12.21504 57.84256,12.21504 C54.745984,12.21504 54.4736,9.319168 54.4736,8.186624 C54.4736,5.878528 55.591808,4.029184 57.871232,4.029184 C60.236672,4.029184 61.025152,6.222592 61.025152,7.26912 C61.025152,8.186624 60.509056,8.358656 59.720576,8.358656 Z M55.677824,7.828224 L59.405184,7.828224 C59.906944,7.828224 59.906944,7.383808 59.906944,7.26912 C59.906944,6.76736 59.820928,4.631296 57.885568,4.631296 C56.036224,4.631296 55.735168,6.451968 55.677824,7.828224 Z" id="::Before" fill="#000000"></path>
            </g>
            <g id="Group-21" transform="translate(965.000000, 2961.000000)">
                <g id="Group-16" transform="translate(1.800000, 204.800000)">
                    <g id="Rectangle-8-Copy">
                        <use fill="black" fill-opacity="1" filter="url(#filter-5)" xlink:href="#path-4"></use>
                        <use fill="#FFFFFF" fill-rule="evenodd" xlink:href="#path-4"></use>
                        <rect stroke="#F3F3F3" stroke-width="1.28" x="0.64" y="0.64" width="381.44" height="119.04" rx="7.68"></rect>
                    </g>
                    <g id="Group-19" transform="translate(52.480000, 29.440000)" fill="#000000">
                        <path d="M2.73,15 L2.73,4.1775 L1.38,4.1775 L1.38,15 L2.73,15 Z M5.325,15 L6.615,15 L6.615,10.215 C6.615,8.7975 7.4475,7.935 8.7375,7.935 C10.0275,7.935 10.6425,8.625 10.6425,10.08 L10.6425,15 L11.9325,15 L11.9325,9.765 C11.9325,7.845 10.92,6.7725 9.105,6.7725 C7.8675,6.7725 7.08,7.2975 6.675,8.19 L6.555,8.19 L6.555,6.915 L5.325,6.915 L5.325,15 Z M19.155,11.2575 L19.155,10.035 L14.235,10.035 L14.235,11.2575 L19.155,11.2575 Z M24.0225,14.01 C25.35,14.01 26.3325,13.14 26.3325,11.985 L26.3325,11.2425 L24.1575,11.385 C22.9275,11.4675 22.3875,11.895 22.3875,12.705 C22.3875,13.53 23.085,14.01 24.0225,14.01 Z M23.7825,15.1425 C22.215,15.1425 21.0525,14.2125 21.0525,12.735 C21.0525,11.2875 22.1175,10.455 24,10.3425 L26.3325,10.2 L26.3325,9.465 C26.3325,8.4675 25.71,7.92 24.5025,7.92 C23.535,7.92 22.86,8.2875 22.68,8.925 L21.375,8.925 C21.5475,7.6275 22.8225,6.7725 24.5475,6.7725 C26.52,6.7725 27.6225,7.785 27.6225,9.465 L27.6225,15 L26.3925,15 L26.3925,13.8075 L26.2725,13.8075 C25.7475,14.67 24.8625,15.1425 23.7825,15.1425 Z M33.945,6.7725 C36.0075,6.7725 37.3425,8.415 37.3425,10.9575 C37.3425,13.485 36,15.1425 33.945,15.1425 C32.79,15.1425 31.86,14.64 31.4175,13.785 L31.2975,13.785 L31.2975,17.7 L30.0075,17.7 L30.0075,6.915 L31.2375,6.915 L31.2375,8.265 L31.3575,8.265 C31.875,7.335 32.8425,6.7725 33.945,6.7725 Z M33.6375,13.98 C35.1225,13.98 36.0075,12.8475 36.0075,10.9575 C36.0075,9.0675 35.1225,7.935 33.645,7.935 C32.1825,7.935 31.26,9.0975 31.26,10.9575 C31.26,12.81 32.1825,13.98 33.6375,13.98 Z M43.305,6.7725 C45.3675,6.7725 46.7025,8.415 46.7025,10.9575 C46.7025,13.485 45.36,15.1425 43.305,15.1425 C42.15,15.1425 41.22,14.64 40.7775,13.785 L40.6575,13.785 L40.6575,17.7 L39.3675,17.7 L39.3675,6.915 L40.5975,6.915 L40.5975,8.265 L40.7175,8.265 C41.235,7.335 42.2025,6.7725 43.305,6.7725 Z M42.9975,13.98 C44.4825,13.98 45.3675,12.8475 45.3675,10.9575 C45.3675,9.0675 44.4825,7.935 43.005,7.935 C41.5425,7.935 40.62,9.0975 40.62,10.9575 C40.62,12.81 41.5425,13.98 42.9975,13.98 Z M54.5775,5.3775 L54.5775,9.5175 L57.24,9.5175 C58.6275,9.5175 59.415,8.775 59.415,7.4475 C59.415,6.15 58.575,5.3775 57.18,5.3775 L54.5775,5.3775 Z M54.5775,10.7175 L54.5775,15 L53.2275,15 L53.2275,4.1775 L57.36,4.1775 C59.445,4.1775 60.81,5.4525 60.81,7.4025 C60.81,8.91 59.9925,10.08 58.635,10.5075 L61.14,15 L59.5575,15 L57.24,10.7175 L54.5775,10.7175 Z M66.0975,7.9125 C64.8075,7.9125 63.9075,8.8575 63.81,10.29 L68.265,10.29 C68.235,8.8575 67.38,7.9125 66.0975,7.9125 Z M68.2275,12.9075 L69.5175,12.9075 C69.1275,14.295 67.8825,15.1425 66.1125,15.1425 C63.87,15.1425 62.4675,13.5225 62.4675,10.965 C62.4675,8.4225 63.8925,6.7725 66.1125,6.7725 C68.295,6.7725 69.6225,8.325 69.6225,10.8375 L69.6225,11.3325 L63.81,11.3325 L63.81,11.3925 C63.8775,12.99 64.77,14.0025 66.1425,14.0025 C67.185,14.0025 67.89,13.62 68.2275,12.9075 Z M78.0975,6.915 L76.7175,6.915 L74.505,13.575 L74.385,13.575 L72.1725,6.915 L70.7925,6.915 L73.785,15 L75.105,15 L78.0975,6.915 Z M82.7475,7.9125 C81.4575,7.9125 80.5575,8.8575 80.46,10.29 L84.915,10.29 C84.885,8.8575 84.03,7.9125 82.7475,7.9125 Z M84.8775,12.9075 L86.1675,12.9075 C85.7775,14.295 84.5325,15.1425 82.7625,15.1425 C80.52,15.1425 79.1175,13.5225 79.1175,10.965 C79.1175,8.4225 80.5425,6.7725 82.7625,6.7725 C84.945,6.7725 86.2725,8.325 86.2725,10.8375 L86.2725,11.3325 L80.46,11.3325 L80.46,11.3925 C80.5275,12.99 81.42,14.0025 82.7925,14.0025 C83.835,14.0025 84.54,13.62 84.8775,12.9075 Z M88.2975,15 L89.5875,15 L89.5875,10.215 C89.5875,8.7975 90.42,7.935 91.71,7.935 C93,7.935 93.615,8.625 93.615,10.08 L93.615,15 L94.905,15 L94.905,9.765 C94.905,7.845 93.8925,6.7725 92.0775,6.7725 C90.84,6.7725 90.0525,7.2975 89.6475,8.19 L89.5275,8.19 L89.5275,6.915 L88.2975,6.915 L88.2975,15 Z M103.8,6.915 L102.51,6.915 L102.51,11.7 C102.51,13.1175 101.73,13.965 100.305,13.965 C99.015,13.965 98.475,13.29 98.475,11.835 L98.475,6.915 L97.185,6.915 L97.185,12.15 C97.185,14.0625 98.13,15.1425 99.945,15.1425 C101.1825,15.1425 102.045,14.6325 102.45,13.7325 L102.57,13.7325 L102.57,15 L103.8,15 L103.8,6.915 Z M109.455,7.9125 C108.165,7.9125 107.265,8.8575 107.1675,10.29 L111.6225,10.29 C111.5925,8.8575 110.7375,7.9125 109.455,7.9125 Z M111.585,12.9075 L112.875,12.9075 C112.485,14.295 111.24,15.1425 109.47,15.1425 C107.2275,15.1425 105.825,13.5225 105.825,10.965 C105.825,8.4225 107.25,6.7725 109.47,6.7725 C111.6525,6.7725 112.98,8.325 112.98,10.8375 L112.98,11.3325 L107.1675,11.3325 L107.1675,11.3925 C107.235,12.99 108.1275,14.0025 109.5,14.0025 C110.5425,14.0025 111.2475,13.62 111.585,12.9075 Z" id="In-app-Revenue"></path>
                        <path d="M12.25,52.589375 L10.0625,52.589375 L10.0625,50.63625 C5.171875,50.355 2.21875,47.88625 2.203125,44.07375 L6.671875,44.07375 C6.78125,45.620625 8.109375,46.776875 10.0625,46.98 L10.0625,41.1675 L8.421875,40.776875 C4.671875,39.901875 2.65625,37.745625 2.65625,34.48 C2.65625,30.63625 5.40625,28.1675 10.0625,27.7925 L10.0625,25.6675 L12.25,25.6675 L12.25,27.7925 C16.59375,28.19875 19.40625,30.745625 19.46875,34.355 L15.109375,34.355 C15.0625,32.933125 13.890625,31.76125 12.25,31.526875 L12.25,37.089375 L13.921875,37.433125 C17.9375,38.2925 19.90625,40.370625 19.90625,43.745625 C19.90625,47.73 17.140625,50.19875 12.25,50.605 L12.25,52.589375 Z M15.46875,44.276875 C15.46875,42.839375 14.4375,41.964375 12.25,41.558125 L12.25,46.995625 C14.28125,46.870625 15.46875,45.855 15.46875,44.276875 Z M7.1875,34.0425 C7.1875,35.355 8.171875,36.26125 10.0625,36.63625 L10.0625,31.51125 C8.375,31.605 7.1875,32.651875 7.1875,34.0425 Z M34.921875,50.48 L34.921875,46.5425 L23.890625,46.5425 L23.890625,42.370625 C25.921875,38.5425 28.859375,33.88625 32.8125,27.933125 L39.421875,27.933125 L39.421875,42.620625 L42.375,42.620625 L42.375,46.5425 L39.421875,46.5425 L39.421875,50.48 L34.921875,50.48 Z M28.125,42.51125 L28.125,42.76125 L35.03125,42.76125 L35.03125,31.605 L34.78125,31.605 C32.71875,34.683125 30.703125,37.839375 28.125,42.51125 Z M55.421875,51.058125 C52.15625,51.058125 49.53125,49.620625 47.984375,46.98 C46.734375,45.058125 46.09375,42.464375 46.09375,39.370625 C46.09375,31.88625 49.625,27.355 55.5,27.355 C59.78125,27.355 63.109375,29.88625 63.75,33.651875 L59.078125,33.651875 C58.640625,32.1675 57.234375,31.23 55.46875,31.23 C52.375,31.23 50.5,34.214375 50.59375,38.88625 L50.875,38.88625 C51.90625,36.76125 54,35.558125 56.625,35.558125 C60.90625,35.558125 64.046875,38.73 64.046875,43.0425 C64.046875,47.73 60.46875,51.058125 55.421875,51.058125 Z M55.375,47.183125 C57.6875,47.183125 59.46875,45.44875 59.46875,43.183125 C59.46875,40.88625 57.75,39.19875 55.390625,39.19875 C53.03125,39.19875 51.296875,40.88625 51.296875,43.13625 C51.296875,45.433125 53.0625,47.183125 55.375,47.183125 Z M70.34375,50.901875 C72.03125,50.901875 73.109375,49.76125 73.109375,48.183125 C73.109375,46.605 72.03125,45.48 70.34375,45.48 C68.671875,45.48 67.578125,46.605 67.578125,48.183125 C67.578125,49.76125 68.671875,50.901875 70.34375,50.901875 Z M82,50.48 L86.71875,50.48 L86.71875,27.933125 L82.015625,27.933125 L76.1875,31.94875 L76.1875,36.339375 L81.71875,32.526875 L82,32.526875 L82,50.48 Z M98.46875,40.69875 L101.265625,40.69875 C103.796875,40.69875 105.34375,41.9175 105.34375,43.88625 C105.34375,45.808125 103.703125,47.13625 101.34375,47.13625 C98.921875,47.13625 97.3125,45.933125 97.171875,44.026875 L92.65625,44.026875 C92.859375,48.276875 96.265625,51.058125 101.296875,51.058125 C106.4375,51.058125 110.15625,48.19875 110.15625,44.245625 C110.15625,41.276875 108.21875,39.214375 105.125,38.870625 L105.125,38.589375 C107.640625,38.07375 109.28125,36.0425 109.28125,33.433125 C109.28125,29.88625 105.953125,27.355 101.328125,27.355 C96.40625,27.355 93.234375,30.0425 93.078125,34.308125 L97.4375,34.308125 C97.5625,32.355 99.015625,31.120625 101.203125,31.120625 C103.40625,31.120625 104.8125,32.276875 104.8125,34.089375 C104.8125,35.933125 103.359375,37.183125 101.21875,37.183125 L98.46875,37.183125 L98.46875,40.69875 Z" id="$46.13"></path>
                    </g>
                    <path d="M231.68,79.2202851 C237.795556,79.2202851 237.795556,82.064178 243.911111,82.064178 C250.026667,82.064178 250.026667,76.03019 256.142222,76.03019 C262.257778,76.03019 262.257778,65.8593067 268.373333,65.8593067 C274.488889,65.8593067 274.488889,65.5597527 280.604444,65.5597527 C286.72,65.5597527 286.72,60.5093009 292.835556,60.5093009 C298.951111,60.5093009 298.951111,60.6656991 305.066667,60.6656991 C311.182222,60.6656991 311.182222,54.3091829 317.297778,54.3091829 C323.413333,54.3091829 323.413333,47.7446986 329.528889,47.7446986 C335.644444,47.7446986 335.644444,46.08 341.76,46.08 L341.76,88.5113454 L231.68,88.5113454 L231.68,79.2202851 Z" id="area_1" fill="#00BCD4"></path>
                </g>
                <g id="Group-17" transform="translate(1.800000, 48.640000)">
                    <g id="Rectangle-8">
                        <use fill="black" fill-opacity="1" filter="url(#filter-7)" xlink:href="#path-6"></use>
                        <use fill="#FFFFFF" fill-rule="evenodd" xlink:href="#path-6"></use>
                        <rect stroke="#F3F3F3" stroke-width="1.28" x="0.64" y="0.64" width="381.44" height="119.04" rx="7.68"></rect>
                    </g>
                    <g id="Group-18" transform="translate(52.480000, 30.720000)" fill="#000000">
                        <path d="M2.73,15 L2.73,4.1775 L1.38,4.1775 L1.38,15 L2.73,15 Z M5.325,15 L6.615,15 L6.615,10.215 C6.615,8.7975 7.4475,7.935 8.7375,7.935 C10.0275,7.935 10.6425,8.625 10.6425,10.08 L10.6425,15 L11.9325,15 L11.9325,9.765 C11.9325,7.845 10.92,6.7725 9.105,6.7725 C7.8675,6.7725 7.08,7.2975 6.675,8.19 L6.555,8.19 L6.555,6.915 L5.325,6.915 L5.325,15 Z M14.1,9.1275 C14.1,10.2975 14.79,10.95 16.305,11.3175 L17.6925,11.655 C18.555,11.865 18.975,12.24 18.975,12.795 C18.975,13.5375 18.195,14.055 17.1075,14.055 C16.0725,14.055 15.4275,13.62 15.21,12.9375 L13.8825,12.9375 C14.025,14.28 15.2625,15.1425 17.0625,15.1425 C18.9,15.1425 20.3025,14.145 20.3025,12.6975 C20.3025,11.535 19.5675,10.875 18.045,10.5075 L16.8,10.2075 C15.8475,9.975 15.3975,9.63 15.3975,9.075 C15.3975,8.355 16.1475,7.8675 17.1075,7.8675 C18.0825,7.8675 18.7125,8.295 18.885,8.94 L20.16,8.94 C19.9875,7.6125 18.81,6.7725 17.115,6.7725 C15.3975,6.7725 14.1,7.785 14.1,9.1275 Z M22.7925,4.8225 L22.7925,6.915 L21.4875,6.915 L21.4875,7.995 L22.7925,7.995 L22.7925,12.9 C22.7925,14.445 23.46,15.06 25.125,15.06 C25.38,15.06 25.6275,15.03 25.8825,14.985 L25.8825,13.8975 C25.6425,13.92 25.515,13.9275 25.2825,13.9275 C24.4425,13.9275 24.0825,13.5225 24.0825,12.57 L24.0825,7.995 L25.8825,7.995 L25.8825,6.915 L24.0825,6.915 L24.0825,4.8225 L22.7925,4.8225 Z M30.3225,14.01 C31.65,14.01 32.6325,13.14 32.6325,11.985 L32.6325,11.2425 L30.4575,11.385 C29.2275,11.4675 28.6875,11.895 28.6875,12.705 C28.6875,13.53 29.385,14.01 30.3225,14.01 Z M30.0825,15.1425 C28.515,15.1425 27.3525,14.2125 27.3525,12.735 C27.3525,11.2875 28.4175,10.455 30.3,10.3425 L32.6325,10.2 L32.6325,9.465 C32.6325,8.4675 32.01,7.92 30.8025,7.92 C29.835,7.92 29.16,8.2875 28.98,8.925 L27.675,8.925 C27.8475,7.6275 29.1225,6.7725 30.8475,6.7725 C32.82,6.7725 33.9225,7.785 33.9225,9.465 L33.9225,15 L32.6925,15 L32.6925,13.8075 L32.5725,13.8075 C32.0475,14.67 31.1625,15.1425 30.0825,15.1425 Z M36.3825,15 L37.6725,15 L37.6725,3.705 L36.3825,3.705 L36.3825,15 Z M40.2525,15 L41.5425,15 L41.5425,3.705 L40.2525,3.705 L40.2525,15 Z" id="Install"></path>
                        <path d="M12.8125,50.48 L12.8125,46.5425 L1.78125,46.5425 L1.78125,42.370625 C3.8125,38.5425 6.75,33.88625 10.703125,27.933125 L17.3125,27.933125 L17.3125,42.620625 L20.265625,42.620625 L20.265625,46.5425 L17.3125,46.5425 L17.3125,50.48 L12.8125,50.48 Z M6.015625,42.51125 L6.015625,42.76125 L12.921875,42.76125 L12.921875,31.605 L12.671875,31.605 C10.609375,34.683125 8.59375,37.839375 6.015625,42.51125 Z M24.046875,34.683125 L24.046875,34.76125 L28.421875,34.76125 L28.421875,34.6675 C28.421875,32.589375 29.921875,31.151875 32.109375,31.151875 C34.171875,31.151875 35.640625,32.433125 35.640625,34.245625 C35.640625,35.714375 34.84375,36.88625 31.671875,39.98 L24.3125,47.183125 L24.3125,50.48 L40.578125,50.48 L40.578125,46.558125 L30.703125,46.558125 L30.703125,46.276875 L35.015625,42.1675 C38.921875,38.495625 40.25,36.38625 40.25,33.933125 C40.25,30.058125 36.96875,27.355 32.265625,27.355 C27.390625,27.355 24.046875,30.32375 24.046875,34.683125 Z M53.90625,51.058125 C50.640625,51.058125 48.015625,49.620625 46.46875,46.98 C45.21875,45.058125 44.578125,42.464375 44.578125,39.370625 C44.578125,31.88625 48.109375,27.355 53.984375,27.355 C58.265625,27.355 61.59375,29.88625 62.234375,33.651875 L57.5625,33.651875 C57.125,32.1675 55.71875,31.23 53.953125,31.23 C50.859375,31.23 48.984375,34.214375 49.078125,38.88625 L49.359375,38.88625 C50.390625,36.76125 52.484375,35.558125 55.109375,35.558125 C59.390625,35.558125 62.53125,38.73 62.53125,43.0425 C62.53125,47.73 58.953125,51.058125 53.90625,51.058125 Z M53.859375,47.183125 C56.171875,47.183125 57.953125,45.44875 57.953125,43.183125 C57.953125,40.88625 56.234375,39.19875 53.875,39.19875 C51.515625,39.19875 49.78125,40.88625 49.78125,43.13625 C49.78125,45.433125 51.546875,47.183125 53.859375,47.183125 Z M75.3125,51.058125 C80.484375,51.058125 83.9375,47.7925 83.9375,43.01125 C83.9375,38.589375 80.90625,35.44875 76.625,35.44875 C74.390625,35.44875 72.796875,36.276875 71.84375,37.651875 L71.5625,37.651875 L72.0625,31.855 L82.578125,31.855 L82.578125,27.933125 L68.40625,27.933125 L67.28125,41.01125 L71.5,41.01125 C72.28125,39.745625 73.609375,38.98 75.359375,38.98 C77.75,38.98 79.4375,40.63625 79.4375,43.120625 C79.4375,45.57375 77.765625,47.19875 75.34375,47.19875 C73.203125,47.19875 71.546875,45.94875 71.28125,44.07375 L66.921875,44.07375 C67.0625,48.105 70.40625,51.058125 75.3125,51.058125 Z" id="4265"></path>
                    </g>
                    <path d="M231.68,88.6304278 C237.795556,88.6304278 237.795556,88.6304278 243.911111,88.6304278 C250.026667,88.6304278 250.026667,88.6304278 256.142222,88.6304278 C262.257778,88.6304278 262.257778,88.6304278 268.373333,88.6304278 C274.488889,88.6304278 274.488889,88.6304278 280.604444,88.6304278 C286.72,88.6304278 286.72,88.6304278 292.835556,88.6304278 C298.951111,88.6304278 298.951111,88.6304278 305.066667,88.6304278 C311.182222,88.6304278 311.182222,88.6304278 317.297778,88.6304278 C323.413333,88.6304278 323.413333,88.6304278 329.528889,88.6304278 C335.644444,88.6304278 335.644444,88.6304278 341.76,88.6304278 L341.76,86.1022926 C335.644444,86.1022926 335.644444,83.6730637 329.528889,83.6730637 C323.413333,83.6730637 323.413333,51.2 317.297778,51.2 C311.182222,51.2 311.182222,87.4784615 305.066667,87.4784615 C298.951111,87.4784615 298.951111,62.8620006 292.835556,62.8620006 C286.72,62.8620006 286.72,66.3372507 280.604444,66.3372507 C274.488889,66.3372507 274.488889,83.4473702 268.373333,83.4473702 C262.257778,83.4473702 262.257778,78.1548854 256.142222,78.1548854 C250.026667,78.1548854 250.026667,74.4716226 243.911111,74.4716226 C237.795556,74.4716226 237.795556,85.6529171 231.68,85.6529171 L231.68,88.6304278 Z" id="stackedArea_1" fill="#00BCD4"></path>
                </g>
                <path d="M2.672832,5.029184 C2.199744,5.029184 1.812672,5.40192 1.812672,5.889344 C1.812672,6.362432 2.199744,6.749504 2.672832,6.749504 C3.14592,6.749504 3.532992,6.362432 3.532992,5.889344 C3.532992,5.40192 3.131584,5.029184 2.672832,5.029184 Z M2.672832,11.49472 C2.199744,11.49472 1.812672,11.867456 1.812672,12.35488 C1.812672,12.827968 2.199744,13.21504 2.672832,13.21504 C3.14592,13.21504 3.532992,12.827968 3.532992,12.35488 C3.532992,11.867456 3.131584,11.49472 2.672832,11.49472 Z M6.385856,5.029184 C5.912768,5.029184 5.525696,5.40192 5.525696,5.889344 C5.525696,6.362432 5.912768,6.749504 6.385856,6.749504 C6.858944,6.749504 7.246016,6.362432 7.246016,5.889344 C7.246016,5.40192 6.844608,5.029184 6.385856,5.029184 Z M6.385856,11.49472 C5.912768,11.49472 5.525696,11.867456 5.525696,12.35488 C5.525696,12.827968 5.912768,13.21504 6.385856,13.21504 C6.858944,13.21504 7.246016,12.827968 7.246016,12.35488 C7.246016,11.867456 6.844608,11.49472 6.385856,11.49472 Z M10.657984,9.874752 L9.539776,12.956992 C9.496768,13.086016 9.353408,13.21504 9.16704,13.21504 C8.980672,13.21504 8.765632,13.07168 8.765632,12.813632 C8.765632,12.770624 8.779968,12.71328 8.794304,12.670272 L12.579008,2.291008 C12.808384,1.645888 13.224128,1.588544 13.453504,1.588544 C13.854912,1.588544 14.155968,1.760576 14.342336,2.291008 L18.012352,12.369216 C18.026688,12.42656 18.05536,12.49824 18.05536,12.598592 C18.05536,12.92832 17.797312,13.21504 17.438912,13.21504 C17.166528,13.21504 16.965824,13.07168 16.865472,12.799296 L15.847616,9.874752 L10.657984,9.874752 Z M12.96608,3.495232 L10.873024,9.27264 L15.632576,9.27264 L13.6112,3.495232 C13.496512,3.17984 13.453504,2.993472 13.295808,2.993472 C13.152448,2.993472 13.080768,3.194176 12.96608,3.495232 Z M20.478144,5.244224 L19.216576,5.244224 C19.030208,5.244224 18.929856,5.387584 18.929856,5.516608 C18.929856,5.645632 19.030208,5.774656 19.216576,5.774656 L20.478144,5.774656 L20.478144,12.655936 C20.478144,13 20.736192,13.21504 21.037248,13.21504 C21.295296,13.21504 21.56768,13 21.56768,12.655936 L21.56768,5.774656 L23.273664,5.774656 C23.460032,5.774656 23.546048,5.645632 23.546048,5.502272 C23.546048,5.373248 23.445696,5.244224 23.273664,5.244224 L21.56768,5.244224 L21.56768,3.380544 C21.56768,2.248 22.155456,2.147648 22.5712,2.147648 C22.728896,2.147648 22.900928,2.161984 23.044288,2.248 C23.158976,2.31968 23.244992,2.377024 23.316672,2.377024 C23.417024,2.377024 23.531712,2.276672 23.531712,2.147648 C23.531712,1.8896 22.958272,1.588544 22.241472,1.588544 C21.56768,1.588544 20.478144,1.846592 20.478144,3.509568 L20.478144,5.244224 Z M26.972352,5.774656 L28.577984,5.774656 C28.764352,5.774656 28.850368,5.645632 28.850368,5.502272 C28.850368,5.373248 28.764352,5.244224 28.577984,5.244224 L26.972352,5.244224 L26.972352,3.423552 C26.972352,3.079488 26.714304,2.864448 26.427584,2.864448 C26.1552,2.864448 25.882816,3.079488 25.882816,3.423552 L25.882816,5.244224 L24.477888,5.244224 C24.29152,5.244224 24.191168,5.387584 24.191168,5.516608 C24.191168,5.645632 24.29152,5.774656 24.477888,5.774656 L25.882816,5.774656 L25.882816,11.767104 C25.882816,12.827968 26.44192,13.21504 27.244736,13.21504 C28.3056,13.21504 28.864704,12.627264 28.864704,12.455232 C28.864704,12.340544 28.778688,12.254528 28.664,12.254528 C28.606656,12.254528 28.549312,12.2832 28.477632,12.340544 C28.176576,12.598592 27.87552,12.612928 27.717824,12.612928 C27.001024,12.612928 26.972352,11.99648 26.972352,11.63808 L26.972352,5.774656 Z M35.143872,9.358656 L31.10112,9.358656 C31.129792,10.505536 31.24448,12.612928 33.265856,12.612928 C34.11168,12.612928 34.957504,12.240192 35.143872,10.978624 C35.201216,10.605888 35.25856,10.175808 35.774656,10.175808 C36.11872,10.175808 36.376768,10.462528 36.376768,10.763584 C36.376768,11.365696 35.674304,13.21504 33.265856,13.21504 C30.16928,13.21504 29.896896,10.319168 29.896896,9.186624 C29.896896,6.878528 31.015104,5.029184 33.294528,5.029184 C35.659968,5.029184 36.448448,7.222592 36.448448,8.26912 C36.448448,9.186624 35.932352,9.358656 35.143872,9.358656 Z M31.10112,8.828224 L34.82848,8.828224 C35.33024,8.828224 35.33024,8.383808 35.33024,8.26912 C35.33024,7.76736 35.244224,5.631296 33.308864,5.631296 C31.45952,5.631296 31.158464,7.451968 31.10112,8.828224 Z M39.731392,7.380288 C39.889088,6.97888 40.190144,6.219072 41.609408,6.176064 C42.168512,6.161728 42.627264,6.147392 42.627264,5.602624 C42.627264,5.54528 42.627264,5.029184 41.953472,5.029184 C41.394368,5.029184 40.77792,5.301568 40.405184,5.573952 C39.975104,5.889344 39.860416,6.147392 39.731392,6.534464 L39.731392,5.588288 C39.731392,5.244224 39.473344,5.029184 39.172288,5.029184 C38.91424,5.029184 38.641856,5.244224 38.641856,5.588288 L38.641856,12.655936 C38.641856,13 38.899904,13.21504 39.186624,13.21504 C39.459008,13.21504 39.731392,13 39.731392,12.655936 L39.731392,7.380288 Z" id="::After" fill="#000000"></path>
            </g>
            <rect id="Rectangle-9" fill="url(#linearGradient-8)" x="504" y="2961" width="959" height="520"></rect>
        </g>
    </g>
</svg>