<?xml version="1.0" encoding="UTF-8"?>
<svg width="312px" height="132px" viewBox="0 0 312 132" version="1.1" xmlns="http://www.w3.org/2000/svg" xmlns:xlink="http://www.w3.org/1999/xlink">
    <!-- Generator: Sketch 47 (45396) - http://www.bohemiancoding.com/sketch -->
    <title>nav-1-2</title>
    <desc>Created with Sketch.</desc>
    <defs>
        <rect id="path-1" x="0" y="0" width="1400" height="469"></rect>
    </defs>
    <g id="blog" stroke="none" stroke-width="1" fill="none" fill-rule="evenodd">
        <g id="for-svg" transform="translate(-966.000000, -1409.000000)">
            <g id="Group-13" transform="translate(-2.000000, 1376.000000)">
                <mask id="mask-2" fill="white">
                    <use xlink:href="#path-1"></use>
                </mask>
                <use id="Mask" fill="#FFFFFF" xlink:href="#path-1"></use>
                <g mask="url(#mask-2)" id="Group-10">
                    <g transform="translate(-387.000000, 27.000000)">
                        <g transform="translate(0.000000, 16.000000)">
                            <g id="Group-8" transform="translate(1395.000000, 8.000000)">
                                <g id="Group-6" transform="translate(152.000000, 0.000000)">
                                    <path d="M32,14 C22.064,14 14,22.064 14,32 C14,41.9360007 22.064,50 32,50 C41.9360007,50 50,41.9360007 50,32 C50,22.0639992 41.9360007,14 32,14 Z M32,19.4 C34.9879996,19.4 37.4,21.8120003 37.4,24.8 C37.4,27.7879997 34.9879996,30.2 32,30.2 C29.0120002,30.2 26.6,27.7879997 26.6,24.8 C26.6,21.8120003 29.0120002,19.4 32,19.4 Z M32,44.9600013 C27.5,44.9600013 23.5219999,42.656 21.2,39.1640007 C21.2540004,35.5820013 28.4,33.6200009 32,33.6200009 C35.5819995,33.6200009 42.7460022,35.5820013 42.8,39.1640007 C40.4779982,42.656 36.5,44.9600013 32,44.9600013 Z" id="Fill-2" fill="#5E4095"></path>
                                    <path d="M32,1 C14.8791728,1 1,14.8791728 1,32 C1,49.1208272 14.8791728,63 32,63 C49.1208272,63 63,49.1208272 63,32 C63,14.8791728 49.1208272,1 32,1 Z M32,0 C49.673112,-3.24649801e-15 64,14.326888 64,32 C64,49.673112 49.673112,64 32,64 C14.326888,64 2.164332e-15,49.673112 0,32 C-2.164332e-15,14.326888 14.326888,3.24649801e-15 32,0 Z" id="Rectangle-5" fill="#E9E9E9" fill-rule="nonzero"></path>
                                </g>
                                <g id="Group-7">
                                    <g id="Group-5">
                                        <path d="M31.5,40.3888 C32.5608053,40.3888 33.4811961,40.7787961 34.2612,41.5588 C35.0412039,42.3388039 35.4312,43.2591947 35.4312,44.32 C35.4312,45.3808053 35.0412039,46.3011961 34.2612,47.0812 C33.4811961,47.8612039 32.5608053,48.2512 31.5,48.2512 C30.4391947,48.2512 29.5188039,47.8612039 28.7388,47.0812 C27.9587961,46.3011961 27.5688,45.3808053 27.5688,44.32 C27.5688,43.2591947 27.9587961,42.3388039 28.7388,41.5588 C29.5188039,40.7787961 30.4391947,40.3888 31.5,40.3888 Z M31.5,28.6888 C32.5608053,28.6888 33.4811961,29.0787961 34.2612,29.8588 C35.0412039,30.6388039 35.4312,31.5591947 35.4312,32.62 C35.4312,33.6808053 35.0412039,34.6011961 34.2612,35.3812 C33.4811961,36.1612039 32.5608053,36.5512 31.5,36.5512 C30.4391947,36.5512 29.5188039,36.1612039 28.7388,35.3812 C27.9587961,34.6011961 27.5688,33.6808053 27.5688,32.62 C27.5688,31.5591947 27.9587961,30.6388039 28.7388,29.8588 C29.5188039,29.0787961 30.4391947,28.6888 31.5,28.6888 Z M31.5,24.8512 C30.4391947,24.8512 29.5188039,24.4612039 28.7388,23.6812 C27.9587961,22.9011961 27.5688,21.9808053 27.5688,20.92 C27.5688,19.8591947 27.9587961,18.9388039 28.7388,18.1588 C29.5188039,17.3787961 30.4391947,16.9888 31.5,16.9888 C32.5608053,16.9888 33.4811961,17.3787961 34.2612,18.1588 C35.0412039,18.9388039 35.4312,19.8591947 35.4312,20.92 C35.4312,21.9808053 35.0412039,22.9011961 34.2612,23.6812 C33.4811961,24.4612039 32.5608053,24.8512 31.5,24.8512 Z" id="more_vert---material" fill="#5E4095"></path>
                                        <path d="M32,1 C14.8791728,1 1,14.8791728 1,32 C1,49.1208272 14.8791728,63 32,63 C49.1208272,63 63,49.1208272 63,32 C63,14.8791728 49.1208272,1 32,1 Z M32,0 C49.673112,-3.24649801e-15 64,14.326888 64,32 C64,49.673112 49.673112,64 32,64 C14.326888,64 2.164332e-15,49.673112 0,32 C-2.164332e-15,14.326888 14.326888,3.24649801e-15 32,0 Z" id="Rectangle-5-Copy" fill="#E9E9E9" fill-rule="nonzero"></path>
                                    </g>
                                </g>
                                <g id="Page-1" transform="translate(82.000000, 4.000000)">
                                    <polygon id="Stroke-1" stroke-opacity="0.00784313771" stroke="#000000" stroke-width="1.33333335e-11" points="0 0 56 0 56 56 0 56"></polygon>
                                    <polygon id="Fill-2" fill="#D1D1D1" points="51 28.5 41.7368421 19 41.7368421 26.125 7 26.125 7 30.875 41.7368421 30.875 41.7368421 38"></polygon>
                                </g>
                                <path d="M14.8869008,77.5788006 C14.8335008,77.4186006 14.6555008,76.8312006 13.8545008,76.8312006 C13.3383008,76.8312006 12.6975008,77.1872006 12.6975008,77.8992006 L12.6975008,90.7686 C12.6975008,90.9644 12.8221008,91.267 13.1959008,91.267 C13.4807008,91.267 13.6765008,91.0356 13.6765008,90.7686 L13.6765008,79.1808005 C13.6765008,79.1096005 13.6943008,79.0206005 13.7833008,79.0206005 C13.8545008,79.0206005 13.8901008,79.0918005 13.9257008,79.1808005 L17.5035006,90.466 C17.6637006,91 18.1265006,91.267 18.6071006,91.267 C19.1233006,91.267 19.6039006,90.9288 19.7463005,90.4482 L23.1995004,79.2698005 C23.2529004,79.0918005 23.2885004,79.0206005 23.3597004,79.0206005 C23.4665004,79.0206005 23.4665004,79.1452005 23.4665004,79.1986005 L23.4665004,90.5016 C23.4665004,90.9822 23.8403004,91.267 24.2141004,91.267 C24.5701003,91.267 24.9617003,90.9822 24.9617003,90.5016 L24.9617003,77.8992006 C24.9617003,77.2228006 24.4989003,76.8312006 23.8047004,76.8312006 C23.4309004,76.8312006 22.8791004,76.9736006 22.6833004,77.5788006 L19.0521006,89.3268001 C18.9631006,89.5938001 18.9275006,89.6828001 18.8207006,89.6828001 C18.7317006,89.6828001 18.6783006,89.5226001 18.6249006,89.3268001 L14.8869008,77.5788006 Z M31.6723,81.1032004 C34.2532999,81.1032004 35.8552999,83.4172003 35.8552999,86.1762002 C35.8552999,88.9708001 34.2354999,91.267 31.6723,91.267 C29.0913001,91.267 27.4893002,88.9352001 27.4893002,86.1762002 C27.4893002,83.4350003 29.0735001,81.1032004 31.6723,81.1032004 Z M31.6723,81.8686004 C29.2515001,81.8686004 28.9667002,84.7522003 28.9667002,86.1762002 C28.9667002,87.5468001 29.2337001,90.5016 31.6723,90.5016 C34.0930999,90.5016 34.3778999,87.6002001 34.3778999,86.1762002 C34.3778999,84.8412003 34.1286999,81.8686004 31.6723,81.8686004 Z M39.6466997,84.0224003 C39.8424997,83.5240003 40.2162997,82.5806004 41.9784996,82.5272004 C42.6726996,82.5094004 43.2422995,82.4916004 43.2422995,81.8152004 C43.2422995,81.7440004 43.2422995,81.1032004 42.4056996,81.1032004 C41.7114996,81.1032004 40.9460996,81.4414004 40.4832997,81.7796004 C39.9492997,82.1712004 39.8068997,82.4916004 39.6466997,82.9722003 L39.6466997,81.7974004 C39.6466997,81.3702004 39.3262997,81.1032004 38.9524997,81.1032004 C38.6320997,81.1032004 38.2938998,81.3702004 38.2938998,81.7974004 L38.2938998,90.5728 C38.2938998,91 38.6142997,91.267 38.9702997,91.267 C39.3084997,91.267 39.6466997,91 39.6466997,90.5728 L39.6466997,84.0224003 Z M51.0920992,86.4788002 L46.0724994,86.4788002 C46.1080994,87.9028001 46.2504994,90.5194 48.7602993,90.5194 C49.8104993,90.5194 50.8606992,90.0566 51.0920992,88.4902001 C51.1632992,88.0274001 51.2344992,87.4934002 51.8752992,87.4934002 C52.3024992,87.4934002 52.6228991,87.8494001 52.6228991,88.2232001 C52.6228991,88.9708001 51.7506992,91.267 48.7602993,91.267 C44.9154995,91.267 44.5772995,87.6714001 44.5772995,86.2652002 C44.5772995,83.3994003 45.9656994,81.1032004 48.7958993,81.1032004 C51.7328992,81.1032004 52.7118991,83.8266003 52.7118991,85.1260003 C52.7118991,86.2652002 52.0710992,86.4788002 51.0920992,86.4788002 Z M46.0724994,85.8202002 L50.7004992,85.8202002 C51.3234992,85.8202002 51.3234992,85.2684002 51.3234992,85.1260003 C51.3234992,84.5030003 51.2166992,81.8508004 48.8136993,81.8508004 C46.5174994,81.8508004 46.1436994,84.1114003 46.0724994,85.8202002 Z" id="More" fill="#5E4095"></path>
                                <path d="M155.408201,87.1196002 L154.019801,90.9466 C153.966401,91.1068 153.788401,91.267 153.557001,91.267 C153.325601,91.267 153.058601,91.089 153.058601,90.7686 C153.058601,90.7152 153.076401,90.644 153.094201,90.5906 L157.793401,77.7034006 C158.078201,76.9024006 158.594401,76.8312006 158.879201,76.8312006 C159.377601,76.8312006 159.751401,77.0448006 159.982801,77.7034006 L164.539601,90.2168 C164.557401,90.288 164.593001,90.377 164.593001,90.5016 C164.593001,90.911 164.272601,91.267 163.827601,91.267 C163.489401,91.267 163.240201,91.089 163.115601,90.7508 L161.851801,87.1196002 L155.408201,87.1196002 Z M158.274001,79.1986005 L155.675201,86.3720002 L161.584801,86.3720002 L159.075001,79.1986005 C158.932601,78.8070005 158.879201,78.5756005 158.683401,78.5756005 C158.505401,78.5756005 158.416401,78.8248005 158.274001,79.1986005 Z M173.635401,87.2442002 C172.976801,87.2442002 172.887801,87.8138001 172.834401,88.2944001 C172.798801,88.5080001 172.514001,90.5194 170.360201,90.5194 C168.384401,90.5194 167.565601,88.9174001 167.565601,86.2830002 C167.565601,83.9690003 168.259801,81.8508004 170.502601,81.8508004 C172.353801,81.8508004 172.745401,83.3460003 172.870001,83.8444003 C172.994601,84.3962003 173.083601,84.7878003 173.635401,84.7878003 C173.973601,84.7878003 174.329601,84.5386003 174.329601,84.0758003 C174.329601,83.7910003 173.653201,81.1032004 170.502601,81.1032004 C168.277601,81.1032004 166.070401,82.5094004 166.070401,86.2296002 C166.070401,89.7896001 168.028401,91.267 170.360201,91.267 C173.332801,91.267 174.383001,88.8640001 174.383001,87.9918001 C174.383001,87.6002001 174.080401,87.2442002 173.635401,87.2442002 Z M183.5322,87.2442002 C182.8736,87.2442002 182.7846,87.8138001 182.7312,88.2944001 C182.6956,88.5080001 182.4108,90.5194 180.257,90.5194 C178.2812,90.5194 177.4624,88.9174001 177.4624,86.2830002 C177.4624,83.9690003 178.1566,81.8508004 180.3994,81.8508004 C182.2506,81.8508004 182.6422,83.3460003 182.7668,83.8444003 C182.8914,84.3962003 182.9804,84.7878003 183.5322,84.7878003 C183.8704,84.7878003 184.2264,84.5386003 184.2264,84.0758003 C184.2264,83.7910003 183.55,81.1032004 180.3994,81.1032004 C178.1744,81.1032004 175.967201,82.5094004 175.967201,86.2296002 C175.967201,89.7896001 177.9252,91.267 180.257,91.267 C183.2296,91.267 184.2798,88.8640001 184.2798,87.9918001 C184.2798,87.6002001 183.9772,87.2442002 183.5322,87.2442002 Z M190.1538,81.1032004 C192.7348,81.1032004 194.3368,83.4172003 194.3368,86.1762002 C194.3368,88.9708001 192.717,91.267 190.1538,91.267 C187.5728,91.267 185.9708,88.9352001 185.9708,86.1762002 C185.9708,83.4350003 187.555,81.1032004 190.1538,81.1032004 Z M190.1538,81.8686004 C187.733,81.8686004 187.4482,84.7522003 187.4482,86.1762002 C187.4482,87.5468001 187.7152,90.5016 190.1538,90.5016 C192.5746,90.5016 192.8594,87.6002001 192.8594,86.1762002 C192.8594,84.8412003 192.6102,81.8686004 190.1538,81.8686004 Z M196.811,88.0630001 C196.811,90.6974 198.5732,91.267 200.050599,91.267 C201.919599,91.267 202.702799,90.199 203.236799,89.4158001 L203.236799,90.5728 C203.236799,91 203.557199,91.267 203.930999,91.267 C204.251399,91.267 204.589599,91 204.589599,90.5728 L204.589599,81.7974004 C204.589599,81.3702004 204.269199,81.1032004 203.913199,81.1032004 C203.574999,81.1032004 203.236799,81.3702004 203.236799,81.7974004 L203.236799,87.9384001 C202.524799,90.5194 200.637999,90.5194 200.335399,90.5194 C199.2496,90.5194 198.1638,89.9142 198.1638,88.1520001 L198.1638,81.7974004 C198.1638,81.3702004 197.8434,81.1032004 197.4696,81.1032004 C197.1492,81.1032004 196.811,81.3702004 196.811,81.7974004 L196.811,88.0630001 Z M215.465399,84.3072003 C215.465399,81.6728004 213.720999,81.1032004 212.225799,81.1032004 C210.356799,81.1032004 209.573599,82.1712004 209.039599,82.9366003 L209.039599,81.7974004 C209.039599,81.3702004 208.719199,81.1032004 208.345399,81.1032004 C208.024999,81.1032004 207.686799,81.3702004 207.686799,81.7974004 L207.686799,90.5728 C207.686799,91 208.007199,91.267 208.363199,91.267 C208.701399,91.267 209.039599,91 209.039599,90.5728 L209.039599,84.4318003 C209.769399,81.8508004 211.638399,81.8508004 211.940999,81.8508004 C213.026799,81.8508004 214.112599,82.4560004 214.112599,84.2004003 L214.112599,90.5728 C214.112599,91 214.432999,91.267 214.806799,91.267 C215.127199,91.267 215.465399,91 215.465399,90.5728 L215.465399,84.3072003 Z M220.840999,82.0288004 L222.834599,82.0288004 C223.065998,82.0288004 223.172798,81.8686004 223.172798,81.6906004 C223.172798,81.5304004 223.065998,81.3702004 222.834599,81.3702004 L220.840999,81.3702004 L220.840999,79.1096005 C220.840999,78.6824005 220.520599,78.4154005 220.164599,78.4154005 C219.826399,78.4154005 219.488199,78.6824005 219.488199,79.1096005 L219.488199,81.3702004 L217.743799,81.3702004 C217.512399,81.3702004 217.387799,81.5482004 217.387799,81.7084004 C217.387799,81.8686004 217.512399,82.0288004 217.743799,82.0288004 L219.488199,82.0288004 L219.488199,89.4692001 C219.488199,90.7864 220.182399,91.267 221.179199,91.267 C222.496399,91.267 223.190598,90.5372 223.190598,90.3236 C223.190598,90.1812 223.083798,90.0744 222.941399,90.0744 C222.870199,90.0744 222.798999,90.11 222.709999,90.1812 C222.336199,90.5016 221.962399,90.5194 221.766599,90.5194 C220.876599,90.5194 220.840999,89.7540001 220.840999,89.3090001 L220.840999,82.0288004 Z" id="Account" fill="#5E4095"></path>
                            </g>
                        </g>
                    </g>
                </g>
            </g>
        </g>
    </g>
</svg>