<?xml version="1.0" encoding="UTF-8"?>
<svg width="50px" height="50px" viewBox="0 0 50 50" version="1.1" xmlns="http://www.w3.org/2000/svg" xmlns:xlink="http://www.w3.org/1999/xlink">
    <!-- Generator: Sketch 48.2 (47327) - http://www.bohemiancoding.com/sketch -->
    <title>Combined Shape</title>
    <desc>Created with Sketch.</desc>
    <defs></defs>
    <g id="Page-1" stroke="none" stroke-width="1" fill="none" fill-rule="evenodd">
        <path d="M0,0 L50,0 L50,50 L0,50 L0,0 Z M15.04,33.3052632 L15.04,24.4126316 L17.0357895,24.4126316 C20.1178947,24.4126316 20.3957895,26.8884211 20.3705263,28 L20.7747368,28 L20.7747368,20.4463158 L20.3705263,20.4463158 C20.3705263,24.0336842 17.7684211,24.0336842 17.0357895,24.0336842 L15.04,24.0336842 L15.04,15.4694737 L19.3094737,15.4694737 C22.2147368,15.4694737 24.3621053,17.4652632 24.5389474,20.0421053 L24.9178947,20.0421053 L24.64,15.0905263 L8.8,15.0905263 L8.8,15.4694737 L11.5284211,15.4694737 L11.5284211,33.3052632 L8.8,33.3052632 L8.8,33.6842105 L24.8421053,33.6842105 L25.1452632,27.7221053 L24.7663158,27.7221053 C24.5389474,30.1221053 23.8063158,31.2084211 23.3768421,31.7136842 C22.7452632,32.4210526 21.4315789,33.3052632 19.6884211,33.3052632 L15.04,33.3052632 Z M36.3115789,21.5578947 L35.9326316,21.5578947 L35.3010526,22.5684211 C34.3157895,21.7852632 33.5073684,21.1536842 31.7642105,21.1536842 C29.7936842,21.1536842 27.6210526,22.3157895 27.6210526,25.0442105 C27.6210526,27.3684211 29.1115789,28.0252632 30.5263158,28.5810526 C34.7452632,30.1978947 35.3263158,30.4252632 35.3263158,31.6126316 C35.3263158,32.8252632 33.8863158,33.7094737 32.4463158,33.7094737 C31.4610526,33.7094737 30.2484211,33.3052632 29.5915789,32.8252632 C28.96,32.3705263 28.1515789,31.4105263 27.8484211,29.44 L27.4694737,29.44 L27.4694737,33.4821053 L27.8484211,33.4821053 L28.48,32.4715789 C28.9347368,32.9263158 30.0715789,34.0884211 32.6989474,34.0884211 C35.8315789,34.0884211 36.9684211,31.8652632 36.9684211,30.1978947 C36.9684211,28.9094737 36.5894737,28.2021053 36.1347368,27.7726316 C35.4526316,27.1663158 35.4273684,27.1410526 31.2842105,25.5242105 C29.2378947,24.7410526 29.1621053,24.1094737 29.1621053,23.68 C29.1621053,22.8463158 29.9452632,21.5326316 31.8905263,21.5326316 C33.5326316,21.5326316 35.4021053,22.6189474 35.9326316,24.9936842 L36.3115789,24.9936842 L36.3115789,21.5578947 Z M41.6421053,30.4505263 C40.6063158,30.4505263 39.8231579,31.2842105 39.8231579,32.2694737 C39.8231579,33.28 40.6315789,34.0884211 41.6421053,34.0884211 C42.6273684,34.0884211 43.4610526,33.28 43.4610526,32.2694737 C43.4610526,31.2842105 42.6526316,30.4505263 41.6421053,30.4505263 Z" id="Combined-Shape" fill="#000000"></path>
    </g>
</svg>